<svg width="16" height="16" viewBox="0 0 16 16" fill="none" xmlns="http://www.w3.org/2000/svg">
<path d="M7.33203 6.00016H8.66536V4.66683H7.33203M7.9987 13.3335C5.0587 13.3335 2.66536 10.9402 2.66536 8.00016C2.66536 5.06016 5.0587 2.66683 7.9987 2.66683C10.9387 2.66683 13.332 5.06016 13.332 8.00016C13.332 10.9402 10.9387 13.3335 7.9987 13.3335ZM7.9987 1.3335C7.12322 1.3335 6.25631 1.50593 5.44747 1.84097C4.63864 2.176 3.90371 2.66706 3.28465 3.28612C2.03441 4.53636 1.33203 6.23205 1.33203 8.00016C1.33203 9.76827 2.03441 11.464 3.28465 12.7142C3.90371 13.3333 4.63864 13.8243 5.44747 14.1594C6.25631 14.4944 7.12322 14.6668 7.9987 14.6668C9.76681 14.6668 11.4625 13.9644 12.7127 12.7142C13.963 11.464 14.6654 9.76827 14.6654 8.00016C14.6654 7.12468 14.4929 6.25778 14.1579 5.44894C13.8229 4.6401 13.3318 3.90517 12.7127 3.28612C12.0937 2.66706 11.3588 2.176 10.5499 1.84097C9.74108 1.50593 8.87418 1.3335 7.9987 1.3335ZM7.33203 11.3335H8.66536V7.3335H7.33203V11.3335Z" fill="#323232"/>
</svg>
